<?xml version="1.0" encoding="utf-8"?>
<!-- Generator: Adobe Illustrator 24.0.0, SVG Export Plug-In . SVG Version: 6.00 Build 0)  -->
<svg version="1.1" id="Calque_1" xmlns="http://www.w3.org/2000/svg" xmlns:xlink="http://www.w3.org/1999/xlink" x="0px" y="0px"
	 viewBox="0 0 594.3 164.2" style="enable-background:new 0 0 594.3 164.2;" xml:space="preserve">
<style type="text/css">
	.st0{fill:none;stroke:#FFFFFF;stroke-width:5;stroke-miterlimit:10;}
	.st1{fill:#FFFFFF;}
</style>
<g>
	<line class="st0" x1="174.2" y1="0" x2="174.2" y2="164.2"/>
	<g>
		<g>
			<path class="st1" d="M273.8,108.9v5.6h-42.9V50.6H273v5.6h-35.8v23h31.2v5.3h-31.2v24.4H273.8z"/>
		</g>
		<g>
			<path class="st1" d="M285.7,114.5V50.6h27c2.8,0,5.3,0.6,7.6,1.7c2.3,1.1,4.3,2.7,6,4.6s3,4.1,4,6.5c0.9,2.4,1.4,4.8,1.4,7.2
				c0,3.1-0.6,5.9-1.8,8.6c-1.2,2.7-2.8,5-4.9,6.8c-2.1,1.9-4.6,3.1-7.5,3.7l15.7,24.6h-7.1l-15-23.6h-18.9v23.6h-6.5L285.7,114.5
				L285.7,114.5z M292,85.3h20.9c2.5,0,4.7-0.7,6.6-2.1s3.3-3.2,4.3-5.4c1-2.2,1.5-4.6,1.5-7.2s-0.6-5-1.8-7.2
				c-1.2-2.2-2.7-4-4.7-5.3c-1.9-1.3-4.1-2-6.5-2H292V85.3z"/>
		</g>
		<g>
			<path class="st1" d="M401,114.5v-52l-23.1,40.4h-4l-23.2-40.4v52h-6.3V50.6h6.5l24.9,43.7l25.1-43.7h6.4v63.9H401z"/>
		</g>
		<g>
			<path class="st1" d="M441.6,115.4c-3.4,0-6.6-0.6-9.4-1.9s-5.3-3.1-7.5-5.3c-2.1-2.3-3.8-4.9-4.9-7.8c-1.2-2.9-1.8-6-1.8-9.3
				c0-4.4,1-8.4,3-12.1c2-3.6,4.7-6.5,8.3-8.7c3.5-2.1,7.6-3.2,12.2-3.2c4.4,0,8.2,1,11.6,3s5.8,4.7,7.5,8.1l-5.9,1.9
				c-1.3-2.4-3.2-4.3-5.5-5.6c-2.4-1.3-5-2-7.9-2c-3.1,0-6,0.8-8.5,2.4c-2.6,1.6-4.6,3.8-6.2,6.6c-1.5,2.8-2.3,6-2.3,9.6
				c0,3.5,0.8,6.7,2.3,9.6c1.6,2.9,3.6,5.1,6.2,6.8s5.4,2.5,8.5,2.5c2,0,4-0.4,5.9-1.1s3.5-1.7,4.9-2.9s2.4-2.6,2.8-4l6,1.8
				c-0.8,2.2-2.2,4.2-4.2,6c-1.9,1.8-4.2,3.1-6.8,4.1C447.4,114.9,444.6,115.4,441.6,115.4z"/>
		</g>
		<g>
			<path class="st1" d="M510.1,114.5H504v-26c0-5.2-0.9-9.2-2.8-11.8c-1.9-2.7-4.5-4-8-4c-2.3,0-4.5,0.6-6.8,1.7
				c-2.2,1.2-4.2,2.7-5.9,4.7s-2.9,4.3-3.6,6.8v28.5h-6.1V48.8h6.1v29.6c1.9-3.5,4.5-6.2,7.8-8.3c3.3-2.1,6.9-3.1,10.7-3.1
				c2.7,0,5,0.5,6.9,1.4c1.9,1,3.4,2.3,4.6,4.2c1.2,1.8,2,3.9,2.6,6.4c0.5,2.4,0.8,5.1,0.8,8.2v27.3H510.1z"/>
		</g>
		<g>
			<path class="st1" d="M519.3,101.1c0-2.9,0.8-5.4,2.5-7.6c1.7-2.1,4-3.8,7-4.9c3-1.2,6.4-1.7,10.3-1.7c2.3,0,4.6,0.2,7.1,0.5
				c2.5,0.4,4.6,0.9,6.6,1.6v-3.9c0-3.9-1.2-7.1-3.5-9.4s-5.6-3.5-9.7-3.5c-2.5,0-5,0.5-7.4,1.4s-5,2.3-7.6,4.1l-2.3-4.3
				c3.1-2.1,6.1-3.7,9-4.7s5.9-1.6,9-1.6c5.8,0,10.3,1.6,13.7,4.9s5,7.8,5,13.6v21.5c0,0.8,0.2,1.4,0.5,1.8c0.4,0.4,0.9,0.6,1.7,0.7
				v4.9c-0.7,0.1-1.2,0.1-1.7,0.2s-0.8,0.1-1.1,0c-1.5-0.1-2.6-0.5-3.4-1.4c-0.8-0.9-1.2-1.9-1.3-2.9l-0.1-3.4
				c-2.1,2.7-4.8,4.8-8.2,6.3s-6.8,2.2-10.3,2.2c-3,0-5.7-0.6-8.1-1.9c-2.4-1.3-4.3-3-5.7-5.2C520,106.1,519.3,103.7,519.3,101.1z
				 M550.7,104.6c0.7-0.8,1.2-1.6,1.5-2.4c0.4-0.8,0.5-1.5,0.5-2.1v-6.8c-2-0.8-4.2-1.4-6.3-1.8c-2.2-0.4-4.4-0.6-6.6-0.6
				c-4.4,0-7.9,0.9-10.6,2.6c-2.7,1.7-4,4.1-4,7c0,1.7,0.4,3.3,1.3,4.9c0.9,1.5,2.2,2.8,4,3.7c1.7,1,3.8,1.5,6.1,1.5
				c2.9,0,5.7-0.6,8.2-1.7C547.4,107.9,549.4,106.4,550.7,104.6z"/>
		</g>
		<g>
			<path class="st1" d="M594.3,112.6c-0.5,0.2-1.2,0.5-2.2,1s-2.2,0.9-3.7,1.3c-1.4,0.4-3,0.5-4.7,0.5s-3.4-0.3-4.9-1
				s-2.7-1.7-3.6-3c-0.9-1.4-1.3-3-1.3-5V72.7h-6.5v-4.9h6.5V52h6.1v15.8h10.8v4.9H580v32c0.1,1.7,0.7,3,1.8,3.8s2.4,1.3,3.8,1.3
				c1.7,0,3.2-0.3,4.6-0.9c1.4-0.6,2.2-1,2.5-1.2L594.3,112.6z"/>
		</g>
	</g>
	<g>
		<path class="st1" d="M102.8,23.3H14.7C6.5,23.3,0,29.8,0,38v66.1c0,8.2,6.5,14.7,14.7,14.7h22V138c0,2.3,2.5,3.5,4.4,2.3
			l28.7-21.5h33c8.2,0,14.7-6.5,14.7-14.7V38C117.5,29.9,111,23.3,102.8,23.3z M29.3,90.5c-4.6,0-8.4-3.7-8.4-8.4
			c0-4.6,3.7-8.4,8.4-8.4c4.6,0,8.4,3.7,8.4,8.4C37.7,86.7,33.9,90.5,29.3,90.5z M58.7,90.5c-4.6,0-8.4-3.7-8.4-8.4
			c0-4.6,3.7-8.4,8.4-8.4s8.4,3.7,8.4,8.4C67.1,86.7,63.4,90.5,58.7,90.5z M88.2,90.5c-4.6,0-8.4-3.7-8.4-8.4c0-4.6,3.7-8.4,8.4-8.4
			c4.6,0,8.4,3.7,8.4,8.4C96.5,86.7,92.8,90.5,88.2,90.5z"/>
	</g>
</g>
</svg>
