<?xml version="1.0" encoding="utf-8"?>
<!-- Generator: Adobe Illustrator 24.0.0, SVG Export Plug-In . SVG Version: 6.00 Build 0)  -->
<svg version="1.1" id="Calque_1" xmlns="http://www.w3.org/2000/svg" xmlns:xlink="http://www.w3.org/1999/xlink" x="0px" y="0px"
	 viewBox="0 0 157.5 157.6" style="enable-background:new 0 0 157.5 157.6;" xml:space="preserve">
<style type="text/css">
	.st0{fill:#FFFFFF;}
</style>
<g>
	<path class="st0" d="M137.9,0H19.7C8.8,0,0,8.8,0,19.7v88.6C0,119.2,8.8,128,19.7,128h29.5v25.8c0,3,3.4,4.8,5.9,3L93.5,128h44.3
		c10.9,0,19.7-8.8,19.7-19.7V19.7C157.5,8.8,148.7,0,137.9,0z M39.3,90c-6.2,0-11.3-5-11.3-11.3c0-6.2,5-11.3,11.3-11.3
		c6.2,0,11.3,5,11.3,11.3C50.6,85,45.6,90,39.3,90z M78.8,90c-6.2,0-11.3-5-11.3-11.3c0-6.2,5-11.3,11.3-11.3S90,72.5,90,78.8
		C90,85,85,90,78.8,90z M118.2,90c-6.2,0-11.3-5-11.3-11.3c0-6.2,5-11.3,11.3-11.3c6.2,0,11.3,5,11.3,11.3
		C129.5,85,124.4,90,118.2,90z"/>
</g>
</svg>
